<mxfile host="app.diagrams.net" modified="2024-03-12T14:01:06.042Z" agent="Mozilla/5.0 (Windows NT 10.0; Win64; x64) AppleWebKit/537.36 (KHTML, like Gecko) Chrome/122.0.0.0 Safari/537.36" version="24.0.5" etag="LCH7mLm7ZHImR3h5rNac" type="github">
  <diagram name="Сторінка-1" id="Z6f75h_WHWawMETIlc56">
    <mxGraphModel>
      <root>
        <mxCell id="0" />
        <mxCell id="1" parent="0" />
      </root>
    </mxGraphModel>
  </diagram>
</mxfile>
